<?xml version="1.0" encoding="UTF-8"?>
<svg version="1.1" xmlns="http://www.w3.org/2000/svg" width="200" height="113">
<path d="M0 0 C1.7890625 1.60546875 1.7890625 1.60546875 3 3 C2.2265625 3.13535156 1.453125 3.27070313 0.65625 3.41015625 C-6.78627575 4.94840105 -12.23254913 6.87721397 -17 13 C-20.28854421 18.66302022 -20.23008144 23.46463352 -18.8359375 29.73828125 C-17.91713902 32.22418929 -16.61015057 33.91392095 -15 36 C-15 36.66 -15 37.32 -15 38 C-13.68747118 38.70674629 -12.34721283 39.36184656 -11 40 C-10.05125 40.45375 -9.1025 40.9075 -8.125 41.375 C-4.92819678 42.32550792 -4.92819678 42.32550792 -1.875 40.625 C1.72308859 37.33978868 3.07180251 34.44968651 5 30 C-0.28 30 -5.56 30 -11 30 C-11 28.02 -11 26.04 -11 24 C1.54 24 14.08 24 27 24 C27 32.1241752 26.57852644 36.99509594 21.1640625 43.0546875 C12.04101065 51.47865492 1.30670022 51.26736846 -10.56640625 51.15234375 C-20.38903956 50.71652726 -28.98530344 48.57172724 -35.8125 41.1875 C-41.72853019 33.82622955 -42.87870164 27.26968352 -42 18 C-40.73822921 11.39559612 -36.94629342 6.43494699 -32 2 C-22.22957204 -4.43327989 -10.62352634 -4.6597778 0 0 Z " fill="#222020" transform="translate(108,6)"/>
<path d="M0 0 C-0.49371094 0.75925781 -0.98742187 1.51851562 -1.49609375 2.30078125 C-2.45708984 3.79158203 -2.45708984 3.79158203 -3.4375 5.3125 C-4.07558594 6.29863281 -4.71367188 7.28476562 -5.37109375 8.30078125 C-8.76926966 13.93181136 -8.58116548 19.59125742 -8 26 C-6.14993009 32.41293663 -2.69332749 37.30667251 2 42 C-5.7369275 41.46641879 -10.08603158 39.30951797 -15.3125 33.4375 C-20.32276767 27.53301133 -19.5883836 20.3931679 -19 13 C-15.8565993 5.66539837 -7.99746549 -0.21045962 0 0 Z " fill="#016D48" transform="translate(91,9)"/>
<path d="M0 0 C2.64 0 5.28 0 8 0 C8.33 0.66 8.66 1.32 9 2 C9.66 1.34 10.32 0.68 11 0 C13.3828125 -0.1953125 13.3828125 -0.1953125 16.125 -0.125 C17.03507812 -0.10695313 17.94515625 -0.08890625 18.8828125 -0.0703125 C19.58148438 -0.04710938 20.28015625 -0.02390625 21 0 C21.0809723 2.43816585 21.14046972 4.87364384 21.1875 7.3125 C21.21263672 8.00279297 21.23777344 8.69308594 21.26367188 9.40429688 C21.3057781 12.30962669 21.33540542 14.45819124 19.78125 16.96875 C17.48085395 18.30055824 15.95459432 18.30237367 13.3125 18.1875 C12.50425781 18.16042969 11.69601563 18.13335937 10.86328125 18.10546875 C10.24839844 18.07066406 9.63351563 18.03585938 9 18 C9 15.66666667 9 13.33333333 9 11 C8.67 10.67 8.34 10.34 8 10 C7.95919217 8.00041636 7.95745644 5.99954746 8 4 C6.68 4 5.36 4 4 4 C3.67 6.97 3.34 9.94 3 13 C2.01 13 1.02 13 0 13 C0 8.71 0 4.42 0 0 Z M13 4 C12.67 5.32 12.34 6.64 12 8 C13.32 8.33 14.64 8.66 16 9 C16.33 7.35 16.66 5.7 17 4 C15.68 4 14.36 4 13 4 Z M16 12 C14.35 12.33 12.7 12.66 11 13 C12.88316159 14.10836423 12.88316159 14.10836423 15 15 C15.66 14.67 16.32 14.34 17 14 C16.67 13.34 16.34 12.68 16 12 Z " fill="#231F20" transform="translate(49,72)"/>
<path d="M0 0 C0 1.32 0 2.64 0 4 C-2 5 -2 5 -4.4375 4.4375 C-7.23185709 3.65853522 -7.23185709 3.65853522 -10 6 C-9.67 8.31 -9.34 10.62 -9 13 C-6.69 13.33 -4.38 13.66 -2 14 C-2 13.01 -2 12.02 -2 11 C-3.32 11 -4.64 11 -6 11 C-6 9.68 -6 8.36 -6 7 C-3.36 7 -0.72 7 2 7 C2.08096803 8.45742463 2.13917774 9.91612807 2.1875 11.375 C2.23970703 12.59316406 2.23970703 12.59316406 2.29296875 13.8359375 C2.19628906 14.55007812 2.09960938 15.26421875 2 16 C-2.03485494 18.68990329 -5.26228652 18.77993882 -10 18 C-13.0625 16.0625 -13.0625 16.0625 -15 13 C-15.62355754 9.87107737 -15.64287152 7.1266933 -15 4 C-10.76576886 -1.84031881 -6.42544529 -0.94801652 0 0 Z " fill="#231F20" transform="translate(113,67)"/>
<path d="M0 0 C0.66 0.33 1.32 0.66 2 1 C1.34 2.32 0.68 3.64 0 5 C-1.11375 4.814375 -2.2275 4.62875 -3.375 4.4375 C-6.82568861 3.68319343 -6.82568861 3.68319343 -9 5 C-9.84298574 7.38084878 -9.84298574 7.38084878 -10 10 C-8.29107501 13.31460705 -8.29107501 13.31460705 -4.875 13.6875 C-3.92625 13.790625 -2.9775 13.89375 -2 14 C-2 13.01 -2 12.02 -2 11 C-2.99 11 -3.98 11 -5 11 C-5 9.68 -5 8.36 -5 7 C-2.69 7 -0.38 7 2 7 C2 10.3 2 13.6 2 17 C-1.45739557 18.72869779 -5.21975568 18.48966895 -9 18 C-11.87029869 16.20606332 -13.49131638 15.01736724 -15 12 C-15.03949715 7.83700018 -15.04253184 4.11203396 -12.125 1 C-7.63454293 -1.11315627 -4.84476807 -0.88086692 0 0 Z " fill="#231F20" transform="translate(16,67)"/>
<path d="M0 0 C1.32 0 2.64 0 4 0 C4 0.99 4 1.98 4 3 C5.65 3 7.3 3 9 3 C9 2.01 9 1.02 9 0 C10.32 0 11.64 0 13 0 C13 0.99 13 1.98 13 3 C13.99 3 14.98 3 16 3 C16 4.32 16 5.64 16 7 C15.01 7 14.02 7 13 7 C13 8.65 13 10.3 13 12 C13.99 12 14.98 12 16 12 C16 13.32 16 14.64 16 16 C13.625 16.125 13.625 16.125 11 16 C9 14 9 14 8.875 10.375 C8.91625 9.26125 8.9575 8.1475 9 7 C7.35 7 5.7 7 4 7 C4 8.65 4 10.3 4 12 C4.99 12 5.98 12 7 12 C7 13.32 7 14.64 7 16 C5.00045254 16.04254356 2.99958364 16.04080783 1 16 C0 15 0 15 -0.09765625 13.15234375 C-0.06510417 11.1015625 -0.03255208 9.05078125 0 7 C-0.66 7 -1.32 7 -2 7 C-2 5.68 -2 4.36 -2 3 C-1.34 3 -0.68 3 0 3 C0 2.01 0 1.02 0 0 Z " fill="#231F20" transform="translate(184,69)"/>
<path d="M0 0 C2.475 0.495 2.475 0.495 5 1 C5.33 1.99 5.66 2.98 6 4 C6.66 2.68 7.32 1.36 8 0 C9.65 0.33 11.3 0.66 13 1 C13.33 1.99 13.66 2.98 14 4 C14.66 2.68 15.32 1.36 16 0 C17.32 0 18.64 0 20 0 C19.71517632 1.41805831 19.42181856 2.83440379 19.125 4.25 C18.96257812 5.03890625 18.80015625 5.8278125 18.6328125 6.640625 C18.00849925 8.96831144 17.15161458 10.89031952 16 13 C14.68 13 13.36 13 12 13 C11.34 11.68 10.68 10.36 10 9 C9.34 10.32 8.68 11.64 8 13 C6.68 13 5.36 13 4 13 C3.32942113 11.2097939 2.6636531 9.41778511 2 7.625 C1.62875 6.62726563 1.2575 5.62953125 0.875 4.6015625 C0 2 0 2 0 0 Z " fill="#231F20" transform="translate(115,72)"/>
<path d="M0 0 C3.3 0 6.6 0 10 0 C9.86114882 5.55404708 7.47398341 8.40639325 3.8359375 12.296875 C0.04792905 15.81085731 -3.02915557 16.06605773 -8 16 C-7.59007813 15.34773438 -7.18015625 14.69546875 -6.7578125 14.0234375 C-3.94000791 9.45293149 -1.3796851 5.24280337 0 0 Z " fill="#026A47" transform="translate(119,35)"/>
<path d="M0 0 C0.99 0.66 1.98 1.32 3 2 C3.3984375 4.09375 3.3984375 4.09375 3.375 6.5 C3.38273437 7.2940625 3.39046875 8.088125 3.3984375 8.90625 C3.26695313 9.5971875 3.13546875 10.288125 3 11 C-0.46923881 13.31282587 -1.92205575 13.42478586 -6 13 C-7.875 11.9375 -7.875 11.9375 -9 10 C-9.63316583 4.09045226 -9.63316583 4.09045226 -7.875 1.0625 C-5.14015561 -0.48724515 -3.0875593 -0.32162076 0 0 Z M-4 3 C-4.33 3.66 -4.66 4.32 -5 5 C-3.68 4.67 -2.36 4.34 -1 4 C-1.99 3.67 -2.98 3.34 -4 3 Z M-5 8 C-3.515 8.99 -3.515 8.99 -2 10 C-1.67 9.34 -1.34 8.68 -1 8 C-2.32 8 -3.64 8 -5 8 Z " fill="#231F20" transform="translate(29,72)"/>
<path d="M0 0 C1.875 1 1.875 1 3 3 C3.41998341 5.85238734 3.27946081 8.06566149 3 11 C-0.46923881 13.31282587 -1.92205575 13.42478586 -6 13 C-7.875 11.9375 -7.875 11.9375 -9 10 C-9.63316583 4.09045226 -9.63316583 4.09045226 -7.875 1.0625 C-5.11019567 -0.50422245 -3.11811483 -0.38976435 0 0 Z M-4 3 C-4.33 3.66 -4.66 4.32 -5 5 C-3.68 4.67 -2.36 4.34 -1 4 C-1.99 3.67 -2.98 3.34 -4 3 Z M-5 8 C-3.515 8.99 -3.515 8.99 -2 10 C-1.67 9.34 -1.34 8.68 -1 8 C-2.32 8 -3.64 8 -5 8 Z " fill="#231F20" transform="translate(178,72)"/>
<path d="M0 0 C2.4375 1.5625 2.4375 1.5625 4 4 C3.9375 7.625 3.9375 7.625 3 11 C-0.46923881 13.31282587 -1.92205575 13.42478586 -6 13 C-8.3989516 11.42827309 -8.90600171 10.28199487 -9.8125 7.5625 C-10.02578982 4.64753907 -9.62661237 3.39711296 -8 1 C-5.15916359 -0.42041821 -3.14522722 -0.31452272 0 0 Z M-5 4 C-5.33 4.99 -5.66 5.98 -6 7 C-5.67 7.66 -5.34 8.32 -5 9 C-3.35 8.67 -1.7 8.34 0 8 C-0.33 6.68 -0.66 5.36 -1 4 C-2.32 4 -3.64 4 -5 4 Z " fill="#231F20" transform="translate(43,72)"/>
<path d="M0 0 C2 2 2 2 2.1953125 4.6015625 C2.17210938 5.59929687 2.14890625 6.59703125 2.125 7.625 C2.10695313 8.62789062 2.08890625 9.63078125 2.0703125 10.6640625 C2.03550781 11.82035156 2.03550781 11.82035156 2 13 C0.54176788 13.0270043 -0.91660675 13.04639787 -2.375 13.0625 C-3.18710938 13.07410156 -3.99921875 13.08570312 -4.8359375 13.09765625 C-7 13 -7 13 -9 12 C-9 10.02 -9 8.04 -9 6 C-6.69 5.34 -4.38 4.68 -2 4 C-3.98 4 -5.96 4 -8 4 C-8 3.01 -8 2.02 -8 1 C-5.23749964 -0.38125018 -3.05268901 -0.19079306 0 0 Z M-5 8 C-5 8.66 -5 9.32 -5 10 C-4.01 9.67 -3.02 9.34 -2 9 C-2.99 8.67 -3.98 8.34 -5 8 Z " fill="#231F20" transform="translate(87,72)"/>
<path d="M0 0 C8.75 -0.125 8.75 -0.125 11 1 C11 4.96 11 8.92 11 13 C10.01 13 9.02 13 8 13 C7.67 10.03 7.34 7.06 7 4 C6.01 4 5.02 4 4 4 C4 6.97 4 9.94 4 13 C2.68 13 1.36 13 0 13 C0 8.71 0 4.42 0 0 Z " fill="#231F20" transform="translate(142,72)"/>
<path d="M0 0 C6.8359375 -0.1953125 6.8359375 -0.1953125 9 0 C11 2 11 2 11.1953125 4.6015625 C11.17210937 5.59929687 11.14890625 6.59703125 11.125 7.625 C11.10695312 8.62789062 11.08890625 9.63078125 11.0703125 10.6640625 C11.03550781 11.82035156 11.03550781 11.82035156 11 13 C9.68 13 8.36 13 7 13 C7 10.03 7 7.06 7 4 C6.01 4 5.02 4 4 4 C3.67 6.97 3.34 9.94 3 13 C2.01 13 1.02 13 0 13 C0 8.71 0 4.42 0 0 Z " fill="#231F20" transform="translate(156,72)"/>
<path d="M0 0 C3.4375 0.75 3.4375 0.75 5.4375 2.75 C5.98337156 8.75458716 5.98337156 8.75458716 4.375 11.6875 C1.28256242 13.38335287 -1.11764741 13.18060657 -4.5625 12.75 C-6.5625 11.1875 -6.5625 11.1875 -7.5625 8.75 C-7.4375 5.125 -7.4375 5.125 -6.5625 1.75 C-3.5625 -0.25 -3.5625 -0.25 0 0 Z M-2.5625 2.75 C-3.2225 4.07 -3.8825 5.39 -4.5625 6.75 C-3.5725 8.235 -3.5725 8.235 -2.5625 9.75 C-1.2425 9.75 0.0775 9.75 1.4375 9.75 C2.11708603 7.35280568 2.11708603 7.35280568 2.4375 4.75 C1.7775 4.09 1.1175 3.43 0.4375 2.75 C-0.5525 2.75 -1.5425 2.75 -2.5625 2.75 Z " fill="#00704A" transform="translate(76.5625,97.25)"/>
<path d="M0 0 C0 0.99 0 1.98 0 3 C-2.31 3 -4.62 3 -7 3 C-6.67 4.65 -6.34 6.3 -6 8 C-4.68 8.33 -3.36 8.66 -2 9 C-2 8.34 -2 7.68 -2 7 C-2.66 7 -3.32 7 -4 7 C-4 6.01 -4 5.02 -4 4 C-2.35 4 -0.7 4 1 4 C1.04241723 6.33294775 1.04092937 8.66702567 1 11 C0 12 0 12 -3.3125 12.3125 C-7 12 -7 12 -9.5 10.4375 C-11 8 -11 8 -11 4.375 C-10 1 -10 1 -8.3125 -0.5 C-5.31349776 -1.14843292 -2.96844996 -0.67464772 0 0 Z " fill="#00704A" transform="translate(132,98)"/>
<path d="M0 0 C2.97 0 5.94 0 9 0 C9 0.66 9 1.32 9 2 C7.02 2 5.04 2 3 2 C3 2.66 3 3.32 3 4 C4.98 4 6.96 4 9 4 C9 4.99 9 5.98 9 7 C7.02 7 5.04 7 3 7 C3 7.66 3 8.32 3 9 C4.98 9 6.96 9 9 9 C9 9.99 9 10.98 9 12 C6.03 12 3.06 12 0 12 C0 8.04 0 4.08 0 0 Z " fill="#00704A" transform="translate(137,98)"/>
<path d="M0 0 C0 0.99 0 1.98 0 3 C-1.98 3 -3.96 3 -6 3 C-6.33 3.99 -6.66 4.98 -7 6 C-6.67 6.66 -6.34 7.32 -6 8 C-4.02 8 -2.04 8 0 8 C-0.33 9.32 -0.66 10.64 -1 12 C-7.3833448 12.48176187 -7.3833448 12.48176187 -10 10.4375 C-11.43135511 6.94857191 -10.933966 4.60244028 -10 1 C-6.1496895 -1.56687367 -4.41430237 -0.83288724 0 0 Z " fill="#00704A" transform="translate(66,98)"/>
<path d="M0 0 C2.97 0 5.94 0 9 0 C9 0.66 9 1.32 9 2 C7.02 2 5.04 2 3 2 C3 2.66 3 3.32 3 4 C4.65 4 6.3 4 8 4 C8 4.99 8 5.98 8 7 C6.35 7 4.7 7 3 7 C3 7.66 3 8.32 3 9 C4.98 9 6.96 9 9 9 C9 9.99 9 10.98 9 12 C6.03 12 3.06 12 0 12 C0 8.04 0 4.08 0 0 Z " fill="#00704A" transform="translate(109,98)"/>
<path d="M0 0 C1.32 0 2.64 0 4 0 C4 4.29 4 8.58 4 13 C2.68 13 1.36 13 0 13 C0 8.71 0 4.42 0 0 Z " fill="#231F20" transform="translate(136,72)"/>
<path d="M0 0 C1.32 0 2.64 0 4 0 C4 4.29 4 8.58 4 13 C2.68 13 1.36 13 0 13 C0 8.71 0 4.42 0 0 Z " fill="#231F20" transform="translate(72,72)"/>
<path d="M0 0 C0.99 0 1.98 0 3 0 C3 2.97 3 5.94 3 9 C4.65 9 6.3 9 8 9 C8 9.99 8 10.98 8 12 C5.36 12 2.72 12 0 12 C0 8.04 0 4.08 0 0 Z " fill="#00704A" transform="translate(86,98)"/>
<path d="M0 0 C0.99 0 1.98 0 3 0 C3 2.97 3 5.94 3 9 C4.32 9 5.64 9 7 9 C7 9.99 7 10.98 7 12 C4.69 12 2.38 12 0 12 C0 8.04 0 4.08 0 0 Z " fill="#00704A" transform="translate(98,98)"/>
<path d="M0 0 C1.32 0 2.64 0 4 0 C4 1.32 4 2.64 4 4 C2.35 3.67 0.7 3.34 -1 3 C-0.67 2.01 -0.34 1.02 0 0 Z " fill="#231F20" transform="translate(136,67)"/>
<path d="M0 0 C2.475 0.495 2.475 0.495 5 1 C4.67 1.99 4.34 2.98 4 4 C2.68 4 1.36 4 0 4 C0 2.68 0 1.36 0 0 Z " fill="#231F20" transform="translate(72,67)"/>
</svg>
